<?xml version="1.0" standalone="no"?>
<!DOCTYPE svg PUBLIC "-//W3C//DTD SVG 20010904//EN"
 "http://www.w3.org/TR/2001/REC-SVG-20010904/DTD/svg10.dtd">
<svg version="1.0" xmlns="http://www.w3.org/2000/svg"
 width="96.000000pt" height="96.000000pt" viewBox="0 0 96.000000 96.000000"
 preserveAspectRatio="xMidYMid meet">
<metadata>
Created by potrace 1.14, written by Peter Selinger 2001-2017
</metadata>
<g transform="translate(0.000000,96.000000) scale(0.100000,-0.100000)"
fill="#000000" stroke="none">
<path d="M230 911 c-85 -27 -159 -90 -201 -171 -23 -43 -24 -53 -24 -265 0
-212 1 -222 24 -265 32 -61 86 -116 146 -148 l50 -27 255 0 255 0 50 27 c69
36 128 102 154 174 21 55 22 72 19 259 -3 187 -5 203 -27 245 -32 61 -86 116
-146 148 -50 27 -51 27 -290 29 -132 1 -251 -2 -265 -6z m185 -195 c30 -13 35
-20 35 -47 0 -28 -2 -31 -22 -24 -13 4 -49 10 -81 12 -102 8 -137 -37 -137
-175 0 -103 7 -136 36 -167 24 -27 70 -33 104 -15 21 11 40 60 40 101 0 28 -2
29 -45 29 -45 0 -45 0 -45 35 l0 35 91 0 92 0 -6 -80 c-7 -84 -20 -121 -59
-157 -72 -67 -202 -51 -255 32 -60 92 -57 276 6 363 45 64 165 92 246 58z
m353 -146 c44 -27 72 -89 72 -163 0 -69 -17 -112 -59 -151 -40 -38 -118 -47
-171 -18 -104 56 -109 270 -7 332 43 27 121 26 165 0z"/>
<path d="M653 515 c-44 -31 -53 -146 -17 -202 20 -32 78 -32 98 0 34 55 26
166 -15 200 -26 21 -38 21 -66 2z"/>
</g>
</svg>
